<?xml version="1.0" ?><svg viewBox="0 0 64 64" xmlns="http://www.w3.org/2000/svg"><g data-name="03-Owl" id="_03-Owl"><path d="M49,49.76v.02A11.017,11.017,0,0,1,46.49,53H43v2.18A27.738,27.738,0,0,1,32,57a27.738,27.738,0,0,1-11-1.82V53H17.51A11.017,11.017,0,0,1,15,49.78v-.02a27.688,27.688,0,0,1,.19-2.9c.83-7.22,4.2-13.58,4.98-16.81A3.99,3.99,0,0,1,24.05,27H29.5L32,30l2.5-3h5.45a3.99,3.99,0,0,1,3.88,3.05c.78,3.23,4.15,9.59,4.98,16.81A27.688,27.688,0,0,1,49,49.76Z" style="fill:#e9edf5"/><path d="M48.81,46.86c-.83-7.22-4.2-13.58-4.98-16.81A3.99,3.99,0,0,0,39.95,27H34.5L32,30l-2.5-3H24.05a3.99,3.99,0,0,0-3.88,3.05c-.78,3.23-4.15,9.59-4.98,16.81a27.688,27.688,0,0,0-.19,2.9v.02c.084.163.181.317.273.475.942-6.968,4.139-13.066,4.9-16.205A3.99,3.99,0,0,1,24.05,31H29.5L32,34l2.5-3h5.45a3.99,3.99,0,0,1,3.88,3.05c.758,3.139,3.955,9.237,4.9,16.205.092-.158.189-.312.273-.475v-.02A27.688,27.688,0,0,0,48.81,46.86Z" style="fill:#dce1eb"/><polygon points="13 57 13 61 1 61 1 57 5 57 6 52 9 57 13 57" style="fill:#64e1dc"/><polygon points="43 57 43 61 21 61 21 57 32 57 43 57" style="fill:#64e1dc"/><rect height="4" style="fill:#64e1dc" width="12" x="51" y="57"/><path d="M17,53v8a2,2,0,0,1-4,0V53Z" style="fill:#ffda45"/><path d="M21,55.18V61a2,2,0,0,1-4,0V53h4Z" style="fill:#ffa426"/><path d="M51,57v4a2,2,0,0,1-4,0V53h4Z" style="fill:#ffa426"/><path d="M47,53v8a2,2,0,0,1-4,0V53h4Z" style="fill:#ffda45"/><polygon points="34.5 27 32 30 29.5 27 27 24 28.17 23.07 32 20 35.83 23.07 37 24 34.5 27" style="fill:#ffa426"/><path d="M46,18a6,6,0,1,1-12,0H46Z" style="fill:#ffda45"/><path d="M24,24a6,6,0,0,1-6-6H30a5.994,5.994,0,0,1-6,6Z" style="fill:#ffda45"/><path d="M30,18H18a6,6,0,0,1,12,0Z" style="fill:#e9edf5"/><path d="M46,18H34a6,6,0,0,1,12,0Z" style="fill:#e9edf5"/><path d="M15,49.78A11.017,11.017,0,0,0,17.51,53H13s-4,0-4-8c0-10.05,4.17-15.92,4.9-16.86-.02.72-.21,1.53-.57,3.86A26.783,26.783,0,0,0,13,36c0,4.95,0,9.91,2,13.76Z" style="fill:#e0b8ff"/><path d="M50.1,28.14c.73.94,4.9,6.81,4.9,16.86,0,8-4,8-4,8H46.49A11.017,11.017,0,0,0,49,49.78v-.02c2-3.85,2-8.81,2-13.76a26.783,26.783,0,0,0-.33-4C50.31,29.67,50.12,28.86,50.1,28.14Z" style="fill:#e0b8ff"/><path d="M12,1c4,0,8,4,8,4l.13.17a18.5,18.5,0,0,0-3.78,4.07L16,9C12,9,12,1,12,1Z" style="fill:#e0b8ff"/><path d="M51,1s0,7.39-3.55,7.96a18.556,18.556,0,0,0-4.16-4.23C44.27,3.83,47.64,1,51,1Z" style="fill:#e0b8ff"/><path d="M34,18a6,6,0,0,0,2.18,4.63l-.35.44L32,20l-3.83,3.07-.35-.44A6,6,0,0,0,24,12a20.687,20.687,0,0,0-2-8l-.07-.11a18.944,18.944,0,0,1,20.13.01L42,4a20.687,20.687,0,0,0-2,8A6,6,0,0,0,34,18Z" style="fill:#e0b8ff"/><path d="M43.29,4.73a18.556,18.556,0,0,1,4.16,4.23A18.835,18.835,0,0,1,51,20a26.783,26.783,0,0,1-.33,4,30.6,30.6,0,0,0-.57,4.13s.01,0,0,.01c.02.72.21,1.53.57,3.86A26.783,26.783,0,0,1,51,36c0,4.95,0,9.91-2,13.76a27.688,27.688,0,0,0-.19-2.9c-.83-7.22-4.2-13.58-4.98-16.81A3.99,3.99,0,0,0,39.95,27H34.5L37,24l-1.17-.93.35-.44A6,6,0,1,0,40,12a20.687,20.687,0,0,1,2-8l.06-.1C42.48,4.15,42.89,4.44,43.29,4.73Z" style="fill:#b674f2"/><path d="M22,4a20.687,20.687,0,0,1,2,8,6,6,0,1,0,3.82,10.63l.35.44L27,24l2.5,3H24.05a3.99,3.99,0,0,0-3.88,3.05c-.78,3.23-4.15,9.59-4.98,16.81a27.688,27.688,0,0,0-.19,2.9c-2-3.85-2-8.81-2-13.76a26.783,26.783,0,0,1,.33-4c.36-2.33.55-3.14.57-3.86-.01-.01,0-.01,0-.01A30.6,30.6,0,0,0,13.33,24,26.783,26.783,0,0,1,13,20,18.9,18.9,0,0,1,16.35,9.24a18.5,18.5,0,0,1,3.78-4.07,17.727,17.727,0,0,1,1.8-1.28Z" style="fill:#b674f2"/><path d="M23.209,7.162a18.923,18.923,0,0,1,17.58.007A22.1,22.1,0,0,1,42,4l.06-.1a18.944,18.944,0,0,0-20.13-.01L22,4A21.964,21.964,0,0,1,23.209,7.162Z" style="fill:#c78ff5"/><path d="M34.346,20.01a5.991,5.991,0,0,0-.327,1.609L35.83,23.07l.35-.44A6.023,6.023,0,0,1,34.346,20.01Z" style="fill:#c78ff5"/><path d="M27.82,22.63l.35.44,1.811-1.451a5.991,5.991,0,0,0-.327-1.609A6.023,6.023,0,0,1,27.82,22.63Z" style="fill:#c78ff5"/><path d="M42,8l.06-.1c.42.25.83.54,1.23.83a18.556,18.556,0,0,1,4.16,4.23A18.8,18.8,0,0,1,50.9,22.1c.065-.735.1-1.443.1-2.1A18.835,18.835,0,0,0,47.45,8.96a18.556,18.556,0,0,0-4.16-4.23c-.4-.29-.81-.58-1.23-.83L42,4a20.687,20.687,0,0,0-2,8c.186,0,.37.011.552.028A22.646,22.646,0,0,1,42,8Z" style="fill:#a260e5"/><path d="M50.348,30.01a11.439,11.439,0,0,0-.248,2.12s.01,0,0,.01c.02.72.21,1.53.57,3.86a27.173,27.173,0,0,1,.3,3.383C51,38.263,51,37.132,51,36a26.783,26.783,0,0,0-.33-4C50.54,31.159,50.433,30.522,50.348,30.01Z" style="fill:#a260e5"/><path d="M35.886,27l.294-.37a5.968,5.968,0,0,0,.534.37H39.95a3.973,3.973,0,0,1,2.121.624A5.97,5.97,0,0,0,45.65,20a6,6,0,0,1-9.47,2.63l-.35.44L37,24l-2.5,3Z" style="fill:#a260e5"/><path d="M16.35,13.24a18.5,18.5,0,0,1,3.78-4.07,17.727,17.727,0,0,1,1.8-1.28L22,8a22.646,22.646,0,0,1,1.448,4.028c.182-.017.366-.028.552-.028a20.687,20.687,0,0,0-2-8l-.07-.11a17.727,17.727,0,0,0-1.8,1.28,18.5,18.5,0,0,0-3.78,4.07A18.9,18.9,0,0,0,13,20c0,.661.04,1.37.105,2.106A18.9,18.9,0,0,1,16.35,13.24Z" style="fill:#a260e5"/><path d="M18.35,20a5.97,5.97,0,0,0,3.579,7.624A3.973,3.973,0,0,1,24.05,27h3.236a5.968,5.968,0,0,0,.534-.37l.294.37H29.5L27,24l1.17-.93-.35-.44A6,6,0,0,1,18.35,20Z" style="fill:#a260e5"/><path d="M13.33,36c.36-2.33.55-3.14.57-3.86-.01-.01,0-.01,0-.01a11.439,11.439,0,0,0-.248-2.12c-.085.512-.192,1.149-.322,1.99A26.783,26.783,0,0,0,13,36c0,1.132,0,2.263.027,3.383A27.173,27.173,0,0,1,13.33,36Z" style="fill:#a260e5"/><rect height="3" style="fill:#ffa426" width="2" x="39" y="18"/><rect height="3" style="fill:#ffa426" width="2" x="23" y="18"/><rect height="2" style="fill:#bec3d2" width="2" x="23" y="32"/><rect height="2" style="fill:#bec3d2" width="14" x="27" y="32"/><path d="M32,53c-9.307,0-14.491-5.077-14.707-5.293l1.414-1.414A19.942,19.942,0,0,0,32,51a21.132,21.132,0,0,0,9.552-2.2l.9,1.788A23.11,23.11,0,0,1,32,53Z" style="fill:#bec3d2"/><path d="M44.548,49.382l-1.095-1.674a12.893,12.893,0,0,0,1.841-1.417l1.413,1.416A14.528,14.528,0,0,1,44.548,49.382Z" style="fill:#bec3d2"/><path d="M13.9,28.13A30.6,30.6,0,0,0,13.33,24,26.783,26.783,0,0,1,13,20,18.9,18.9,0,0,1,16.35,9.24a18.5,18.5,0,0,1,3.78-4.07,17.727,17.727,0,0,1,1.8-1.28,18.944,18.944,0,0,1,20.13.01c.42.25.83.54,1.23.83a18.556,18.556,0,0,1,4.16,4.23A18.835,18.835,0,0,1,51,20a26.783,26.783,0,0,1-.33,4,30.6,30.6,0,0,0-.57,4.13" style="fill:none;stroke:#000;stroke-linejoin:round;stroke-width:2px"/><path d="M15,49.76c-2-3.85-2-8.81-2-13.76a26.783,26.783,0,0,1,.33-4c.36-2.33.55-3.14.57-3.86" style="fill:none;stroke:#000;stroke-linejoin:round;stroke-width:2px"/><path d="M17.51,53A11.017,11.017,0,0,1,15,49.78" style="fill:none;stroke:#000;stroke-linejoin:round;stroke-width:2px"/><path d="M43,55.18A27.738,27.738,0,0,1,32,57a27.738,27.738,0,0,1-11-1.82" style="fill:none;stroke:#000;stroke-linejoin:round;stroke-width:2px"/><path d="M49,49.78A11.017,11.017,0,0,1,46.49,53" style="fill:none;stroke:#000;stroke-linejoin:round;stroke-width:2px"/><path d="M50.1,28.14c.02.72.21,1.53.57,3.86A26.783,26.783,0,0,1,51,36c0,4.95,0,9.91-2,13.76" style="fill:none;stroke:#000;stroke-linejoin:round;stroke-width:2px"/><path d="M43,5s.1-.1.29-.27C44.27,3.83,47.64,1,51,1c0,0,0,7.39-3.55,7.96A2.154,2.154,0,0,1,47,9" style="fill:none;stroke:#000;stroke-linejoin:round;stroke-width:2px"/><path d="M20,5s-4-4-8-4c0,0,0,8,4,8" style="fill:none;stroke:#000;stroke-linejoin:round;stroke-width:2px"/><path d="M30,18a5.994,5.994,0,1,0-2.18,4.63A6,6,0,0,0,30,18Z" style="fill:none;stroke:#000;stroke-linejoin:round;stroke-width:2px"/><path d="M46,18a6,6,0,1,0-6,6A6,6,0,0,0,46,18Z" style="fill:none;stroke:#000;stroke-linejoin:round;stroke-width:2px"/><path d="M24,12a20.687,20.687,0,0,0-2-8" style="fill:none;stroke:#000;stroke-linejoin:round;stroke-width:2px"/><path d="M42,4a20.687,20.687,0,0,0-2,8" style="fill:none;stroke:#000;stroke-linejoin:round;stroke-width:2px"/><polygon points="29.5 27 27 24 28.17 23.07 32 20 35.83 23.07 37 24 34.5 27 32 30 29.5 27" style="fill:none;stroke:#000;stroke-linejoin:round;stroke-width:2px"/><polyline points="34 18 40 18 46 18" style="fill:none;stroke:#000;stroke-linejoin:round;stroke-width:2px"/><line style="fill:none;stroke:#000;stroke-linejoin:round;stroke-width:2px" x1="40" x2="40" y1="18" y2="21"/><polyline points="18 18 24 18 30 18" style="fill:none;stroke:#000;stroke-linejoin:round;stroke-width:2px"/><line style="fill:none;stroke:#000;stroke-linejoin:round;stroke-width:2px" x1="24" x2="24" y1="18" y2="21"/><path d="M30,27H24.05a3.99,3.99,0,0,0-3.88,3.05c-.78,3.23-4.15,9.59-4.98,16.81a27.688,27.688,0,0,0-.19,2.9V50" style="fill:none;stroke:#000;stroke-linejoin:round;stroke-width:2px"/><path d="M34,27h5.95a3.99,3.99,0,0,1,3.88,3.05c.78,3.23,4.15,9.59,4.98,16.81a27.688,27.688,0,0,1,.19,2.9V50" style="fill:none;stroke:#000;stroke-linejoin:round;stroke-width:2px"/><path d="M17,61a2,2,0,0,1-4,0V53h4" style="fill:none;stroke:#000;stroke-linejoin:round;stroke-width:2px"/><path d="M17.51,53H21v8a2,2,0,0,1-4,0V53Z" style="fill:none;stroke:#000;stroke-linejoin:round;stroke-width:2px"/><path d="M47,61a2,2,0,0,1-4,0V53h4" style="fill:none;stroke:#000;stroke-linejoin:round;stroke-width:2px"/><path d="M51,53v8a2,2,0,0,1-4,0V53Z" style="fill:none;stroke:#000;stroke-linejoin:round;stroke-width:2px"/><polyline points="51 57 63 57 63 61 51 61" style="fill:none;stroke:#000;stroke-linejoin:round;stroke-width:2px"/><polyline points="13 57 9 57 6 52 5 57 1 57 1 61 13 61" style="fill:none;stroke:#000;stroke-linejoin:round;stroke-width:2px"/><polyline points="21 57 32 57 43 57" style="fill:none;stroke:#000;stroke-linejoin:round;stroke-width:2px"/><line style="fill:none;stroke:#000;stroke-linejoin:round;stroke-width:2px" x1="43" x2="21" y1="61" y2="61"/><path d="M50,28a.929.929,0,0,1,.1.13s.01,0,0,.01c.73.94,4.9,6.81,4.9,16.86,0,8-4,8-4,8" style="fill:none;stroke:#000;stroke-linejoin:round;stroke-width:2px"/><path d="M14,28a.929.929,0,0,0-.1.13s-.01,0,0,.01C13.17,29.08,9,34.95,9,45c0,8,4,8,4,8" style="fill:none;stroke:#000;stroke-linejoin:round;stroke-width:2px"/><line style="fill:none;stroke:#000;stroke-linejoin:round;stroke-width:2px" x1="23" x2="25" y1="33" y2="33"/><line style="fill:none;stroke:#000;stroke-linejoin:round;stroke-width:2px" x1="27" x2="41" y1="33" y2="33"/><path d="M42,49.69A22.1,22.1,0,0,1,32,52a20.7,20.7,0,0,1-14-5" style="fill:none;stroke:#000;stroke-linejoin:round;stroke-width:2px"/><path d="M46,47a13.443,13.443,0,0,1-2,1.54" style="fill:none;stroke:#000;stroke-linejoin:round;stroke-width:2px"/></g></svg>